<svg xmlns="http://www.w3.org/2000/svg" viewBox="0 0 407 407"><defs><style>.cls-1,.cls-2{fill:none;stroke-miterlimit:10;}.cls-1{stroke:#eee;stroke-width:20px;}.cls-2{stroke:#303030;}</style></defs><title>pencil</title><g id="Layer_2" data-name="Layer 2"><g id="Capa_1_copy" data-name="Capa 1 copy"><circle class="cls-1" cx="203.5" cy="203.5" r="193.5"/><path class="cls-2" d="M246.11,218.55a22.11,22.11,0,0,0-42.34-12.74,19.11,19.11,0,0,0-1.58-2.88A22.11,22.11,0,0,0,160,212.27a23.17,23.17,0,0,0,.94,6.4c2.47,14.62,28.24,34.41,43.4,50.27,0-.06,0-.06.06-.12,16.27-20,40.23-35.94,41.69-50.27ZM332,171.69,211.41,68a12.1,12.1,0,0,0-15.74,0L75.05,171.69A12.08,12.08,0,0,0,90.8,190L203.55,93l112.75,97a12.05,12.05,0,0,0,7.87,2.87A12,12,0,0,0,332,171.69ZM207.48,109.91a6.06,6.06,0,0,0-7.87,0L108.7,188.37a5.85,5.85,0,0,0-2.11,4.52v113.4a6,6,0,0,0,6.05,6H294.45a6,6,0,0,0,6-6V192.89a6,6,0,0,0-2.05-4.52ZM288.4,300.24H118.69V195.66l84.86-73.18,84.85,73.18Z"/></g></g></svg>