<?xml version="1.0" encoding="utf-8"?>
<!-- Generator: Adobe Illustrator 21.0.0, SVG Export Plug-In . SVG Version: 6.00 Build 0)  -->
<svg version="1.1" id="Layer_1" xmlns="http://www.w3.org/2000/svg" xmlns:xlink="http://www.w3.org/1999/xlink" x="0px" y="0px"
	 viewBox="0 0 724.6 512" style="enable-background:new 0 0 724.6 512;" xml:space="preserve">
<style type="text/css">
	.st0{opacity:0.19;fill:#BF0A30;}
</style>
<path class="st0" d="M235.6,247.4l-14.1,4.8l65.5,57.4c4.9,14.8-1.7,19.1-6,26.9l71.1-9l-1.9,71.5l14.7-0.4l-3.2-70.9l71.1,8.4
	c-4.4-9.3-8.3-14.2-4.2-29.1l65.4-54.4l-11.4-4.1c-9.4-7.2,4-34.8,6.1-52.2c0,0-38.2,13.1-40.7,6.3l-9.7-18.7L403.5,222
	c-3.8,0.9-5.4-0.6-6.3-3.8l16.1-79.8l-25.4,14.3c-2.1,0.9-4.3,0.1-5.7-2.4l-24.4-49.1l-25.2,51c-1.9,1.8-3.8,2-5.4,0.8l-24.2-13.6
	l14.5,79.1c-1.2,3.1-3.9,4-7.2,2.3L277,183.2c-4.3,7-7.3,18.3-13,20.9c-5.7,2.4-25-4.8-37.9-7.6
	C230.5,212.4,244.3,238.8,235.6,247.4L235.6,247.4z"/>
</svg>
