<svg xmlns="http://www.w3.org/2000/svg" viewBox="0 0 407 407"><defs><style>.cls-1,.cls-2{fill:none;stroke-miterlimit:10;}.cls-1{stroke:#eee;stroke-width:20px;}.cls-2{stroke:#555;stroke-width:2px;}</style></defs><title>hammer</title><g id="Layer_2" data-name="Layer 2"><g id="Capa_1" data-name="Capa 1"><circle class="cls-1" cx="203.5" cy="203.5" r="193.5"/><path class="cls-2" d="M332.4,214.9s-22.89-2-63,0c-26.54-32.19-90.56-75.64-91.56-94.21-.66-9.29-1.67-23.6-6.32-27-15.92-1-20.55,24.65-16.57,42.56s25.54,25.88,19.57,36.83c-8,15.92-33.83,4-53.08,16.58-12.94,6.39-15.72,16.53-14.39,24s14.39,5.15,15.05,11.12-16.84,6.05-14.94,17.92c2.59,9,15.6,4,16.94,11.28s-11.12,2.23-8,15.26c3.81,13.1,17.25,6,21.89,10.62s-5.64,5,4.64,15.26c9.29,7.31,33.84,6.63,49.76,0s53.07,5.31,77-8,50.42,2,50.42,2L332.4,214.9"/></g></g></svg>