<svg xmlns="http://www.w3.org/2000/svg" viewBox="0 0 409 408"><defs><style>.cls-1,.cls-2{fill:none;stroke-miterlimit:10;}.cls-1{stroke:#eee;stroke-width:20px;}.cls-2{stroke:#555;stroke-width:2px;}</style></defs><title>home</title><g id="Layer_2" data-name="Layer 2"><g id="Capa_1_copy_2" data-name="Capa 1 copy 2"><circle class="cls-1" cx="203.5" cy="203.5" r="193.5"/><path class="cls-2" d="M131.2,295.6a19.13,19.13,0,0,0,33.7,18.1l35.5-66.3a19.19,19.19,0,0,0-.6-19l37.4-69.7-16.9-9L183,219.4a18.94,18.94,0,0,0-16.2,10l-35.6,66.2Zm174.3-163c2.5-4.6,3.7-11.3-.9-13.8l-8.3-4.5c-3-1.6-4.4,1-5.7,3.3-.6,1.1-1.7,5.4-10.1.9,0,0,1.3-2.4,2.5-4.7,2.3-4.4.2-6.6-7.4-10.6l-8.4-4.5a7.74,7.74,0,0,0-5.2-.6c-14.9-7.7-55.4-22.3-82.6,28.4,25.9-16.7,42.3-16.6,50.7-14.5a3.78,3.78,0,0,0-1,1.2l-13,24.2,33.5,18.5,8.7-16.2c8.4,4.5,8.6,4.3,10.8.1,1.2-2.3,2.4-4.4,2.4-4.4,8.4,4.5,6,6.8,5.5,7.7-1.2,2.3-.6,3.9,1.3,4.9l9.7,5.2c4.6,2.5,6.1.9,8.6-3.8Z"/><circle class="cls-1" cx="205.5" cy="204.5" r="193.5"/></g></g></svg>